<svg version="1.1" id="Layer_1" xmlns="http://www.w3.org/2000/svg" xmlns:xlink="http://www.w3.org/1999/xlink" x="0px" y="0px"
	 width="100%" viewBox="0 0 531 165" enable-background="new 0 0 531 165" xml:space="preserve">
<path fill="#130F0F" opacity="1.000000" stroke="none" 
	d="
M354.000000,166.000000 
	C236.000000,166.000000 118.500015,166.000000 1.000016,166.000000 
	C1.000010,111.000008 1.000010,56.000019 1.000005,1.000023 
	C177.999985,1.000015 354.999969,1.000015 532.000000,1.000008 
	C532.000000,55.999973 532.000000,110.999947 532.000000,165.999969 
	C472.833344,166.000000 413.666656,166.000000 354.000000,166.000000 
M54.279507,94.551056 
	C54.279507,91.022163 54.279507,87.493271 54.279507,83.964378 
	C54.746552,83.937813 55.213600,83.911240 55.680645,83.884666 
	C56.098946,84.742989 56.610195,85.568970 56.921749,86.464439 
	C62.445675,102.341240 67.952362,118.224052 73.447746,134.110764 
	C77.199921,144.958038 77.189697,144.962524 88.323456,143.695694 
	C89.813385,143.526184 91.320778,143.094757 92.787277,143.208298 
	C98.457375,143.647308 99.557426,140.720520 99.529274,135.653641 
	C99.344154,102.330269 99.418999,69.005447 99.408493,35.681099 
	C99.404007,21.448692 99.403305,21.609610 84.983673,21.600569 
	C80.369919,21.597677 78.955910,23.164202 79.007690,27.698275 
	C79.218880,46.190887 79.114243,64.687111 79.125542,83.182007 
	C79.126915,85.421448 79.125732,87.660889 79.125732,89.900330 
	C77.479950,88.931625 76.907104,87.817467 76.484398,86.648994 
	C70.140038,69.111565 63.774220,51.581715 57.500137,34.019108 
	C53.030937,21.508787 53.088348,21.641825 39.955326,21.602530 
	C35.275009,21.588526 33.595329,23.045767 33.643066,27.911123 
	C33.865391,50.569630 33.742943,73.231506 33.746925,95.892174 
	C33.749763,112.054573 33.746166,128.216980 33.768921,144.379349 
	C33.777519,150.487732 33.853550,150.512161 40.080204,149.688919 
	C42.886852,149.317841 45.695999,148.895050 48.517815,148.725677 
	C52.842285,148.466110 54.420609,146.489120 54.352177,142.019821 
	C54.114975,126.527924 54.273052,111.029968 54.279507,94.551056 
M507.792389,142.695572 
	C500.543915,123.909576 493.218414,105.152420 486.156952,86.296379 
	C485.386230,84.238342 485.452881,81.329216 486.291504,79.292671 
	C491.995117,65.441437 498.029938,51.726871 503.913940,37.949463 
	C506.039398,32.972668 508.044312,27.944397 510.593323,21.751398 
	C507.108978,21.751398 504.865601,21.713095 502.623901,21.757465 
	C484.885132,22.108585 490.133087,19.108225 482.828979,35.119190 
	C480.048035,41.215157 477.377625,47.361561 474.119537,54.694286 
	C472.697296,51.570290 471.804718,49.835358 471.102173,48.026611 
	C468.330017,40.889755 465.708923,33.692440 462.816956,26.605225 
	C462.116608,24.888962 460.683014,22.269056 459.436646,22.180748 
	C453.072815,21.729853 446.659851,21.972448 439.620331,21.972448 
	C440.304962,24.441000 440.609222,26.048008 441.188568,27.548841 
	C447.482758,43.854019 453.723358,60.181236 460.214752,76.407974 
	C461.804840,80.382828 461.964722,83.805092 460.158691,87.802635 
	C454.402740,100.543175 448.972961,113.431786 443.480591,126.290283 
	C441.427094,131.097916 439.548157,135.980103 437.239197,141.695770 
	C443.498932,142.339096 448.774200,142.690292 453.981506,143.486176 
	C457.237549,143.983810 458.892426,142.806473 460.077728,139.919998 
	C462.985199,132.839722 466.045227,125.821312 469.109467,118.806641 
	C470.122711,116.487144 471.336395,114.255211 472.944427,110.999184 
	C474.092224,113.270622 474.753387,114.353165 475.208893,115.516251 
	C478.850616,124.815475 482.391266,134.155014 486.128906,143.415207 
	C486.757599,144.972763 488.000885,147.184708 489.276947,147.427139 
	C495.910767,148.687485 502.647186,149.407867 510.311279,150.446899 
	C509.343384,147.410385 508.707764,145.416367 507.792389,142.695572 
M118.479614,70.499725 
	C118.476448,92.145309 118.538506,113.791283 118.408432,135.436111 
	C118.385712,139.217026 119.143158,140.816772 123.442825,140.378906 
	C135.859406,139.114487 148.323822,138.326080 160.762772,137.271881 
	C165.170090,136.898346 171.463470,137.849075 173.460129,135.397293 
	C175.818176,132.501740 174.341827,126.565765 174.737885,121.965965 
	C175.098969,117.772522 173.454910,116.321327 169.251083,116.710312 
	C160.801987,117.492119 152.311584,117.820511 143.856430,118.547531 
	C140.262848,118.856529 138.635956,117.885956 138.777725,113.978386 
	C139.025116,107.159798 139.039185,100.323402 138.855957,93.502396 
	C138.760452,89.946884 140.163162,88.865929 143.552734,88.956886 
	C149.540756,89.117561 155.539093,88.851280 161.530807,88.933022 
	C164.415878,88.972382 165.880676,88.037361 165.787338,84.932755 
	C165.667313,80.940956 165.707016,76.939117 165.836609,72.946754 
	C165.934280,69.937225 164.632111,68.794060 161.664062,68.858414 
	C155.505997,68.991951 149.338943,68.791695 143.184982,69.002594 
	C139.985062,69.112251 138.684189,68.118019 138.805420,64.783760 
	C139.017044,58.963264 139.096558,53.121315 138.836304,47.306038 
	C138.656387,43.285961 140.250290,42.089470 144.074081,42.183781 
	C152.394470,42.388992 160.729599,42.067379 169.045700,42.347347 
	C173.496552,42.497196 175.068237,40.771698 174.748596,36.512333 
	C174.524902,33.531448 174.455841,30.499756 174.733627,27.529657 
	C175.146591,23.114508 173.285355,21.658924 169.007080,21.702444 
	C154.023514,21.854866 139.035446,21.903496 124.053650,21.682198 
	C119.557175,21.615780 118.360397,23.316113 118.417641,27.541363 
	C118.607063,41.525188 118.483383,55.513256 118.479614,70.499725 
M282.462921,59.337975 
	C282.475708,55.171391 282.655670,50.996544 282.450165,46.840755 
	C282.275360,43.305977 283.704071,42.187561 287.136444,42.251766 
	C295.632874,42.410698 304.140594,42.081398 312.632141,42.336536 
	C317.062103,42.469643 318.680908,40.768093 318.417206,36.505535 
	C318.222076,33.351669 318.275055,30.169191 318.432465,27.010172 
	C318.622528,23.194889 317.099884,21.679136 313.166718,21.717842 
	C298.002319,21.867062 282.833679,21.908283 267.670746,21.696192 
	C263.175934,21.633320 261.989349,23.355606 262.027374,27.587822 
	C262.193512,46.086205 262.090851,64.586983 262.090179,83.086891 
	C262.089661,98.086830 262.219330,113.088409 262.021637,128.085709 
	C261.963531,132.492081 263.514374,134.148285 267.849274,133.766800 
	C270.826324,133.504791 273.863037,133.499588 276.840088,133.758621 
	C281.325989,134.148926 282.604736,132.145401 282.528137,127.906769 
	C282.326477,116.743858 282.663727,105.569664 282.374725,94.410614 
	C282.249115,89.559669 283.496979,87.154526 288.755707,87.745377 
	C291.553314,88.059700 294.416016,87.791946 297.249329,87.791687 
	C309.473450,87.790558 309.473206,87.791206 309.460602,75.820175 
	C309.459381,74.653519 309.376312,73.479042 309.480713,72.321678 
	C309.797577,68.809418 308.133881,67.592949 304.759033,67.693329 
	C299.763885,67.841927 294.760406,67.704933 289.760468,67.699295 
	C282.501038,67.691116 282.501038,67.694832 282.462921,59.337975 
M192.708710,21.718605 
	C188.336243,21.189886 186.629166,23.117336 187.060501,27.466801 
	C187.321991,30.103527 187.088547,32.788479 187.092850,35.451736 
	C187.103745,42.183853 187.115219,42.197582 193.641357,42.236115 
	C196.637543,42.253807 199.656616,42.480492 202.624878,42.193851 
	C207.106415,41.761074 208.264160,43.641567 208.234634,47.942665 
	C208.065506,72.577766 208.166046,97.214714 208.170731,121.851036 
	C208.173233,135.018585 208.169312,135.018570 221.407379,134.710754 
	C228.539444,134.544907 228.680817,134.422668 228.679932,127.379280 
	C228.676590,100.911942 228.743088,74.444031 228.562363,47.977837 
	C228.532944,43.669518 229.709076,41.844624 234.186386,42.229488 
	C237.821747,42.541988 241.506500,42.230579 245.165558,42.332455 
	C248.083557,42.413696 249.477493,41.203888 249.416199,38.222805 
	C249.340927,34.562447 249.179718,30.882498 249.457413,27.241661 
	C249.800751,22.740448 247.838333,21.609974 243.598389,21.657253 
	C226.954712,21.842844 210.307465,21.709503 192.708710,21.718605 
M385.663879,129.392761 
	C385.653748,127.227448 385.491486,125.049774 385.665985,122.899452 
	C386.002594,118.752907 384.575928,117.000404 380.075562,116.949593 
	C372.259857,116.861343 364.457611,115.822716 356.639160,115.643753 
	C352.261383,115.543541 351.072723,113.926735 351.105225,109.651199 
	C351.291321,85.166473 351.194427,60.679562 351.185638,36.193390 
	C351.180176,21.010244 351.177246,21.103123 335.776337,21.668076 
	C332.154236,21.800947 330.852570,23.019281 330.862244,26.689131 
	C330.953217,61.169353 330.937500,95.650009 330.854767,130.130310 
	C330.846741,133.473969 331.870605,134.822906 335.394470,134.954117 
	C349.705078,135.486938 364.005646,136.289902 378.309662,136.998596 
	C385.536957,137.356659 385.536713,137.361801 385.663879,129.392761 
M422.444275,87.500229 
	C422.431061,67.507744 422.324066,47.514530 422.478729,27.523344 
	C422.512268,23.193228 421.071350,21.381683 416.712372,21.710672 
	C413.897583,21.923111 411.030579,21.927309 408.223663,21.651350 
	C403.523438,21.189251 401.875061,22.877636 401.903473,27.789598 
	C402.089478,59.943665 401.973999,92.099403 401.981964,124.254593 
	C401.985626,138.920151 402.024475,138.754868 416.620209,139.910461 
	C421.152039,140.269257 422.470215,138.848907 422.427673,134.482788 
	C422.278320,119.156784 422.415894,103.827980 422.444275,87.500229 
z"/>
<path fill="#E00B15" opacity="1.000000" stroke="none" 
	d="
M54.280117,95.042686 
	C54.273052,111.029968 54.114975,126.527924 54.352177,142.019821 
	C54.420609,146.489120 52.842285,148.466110 48.517815,148.725677 
	C45.695999,148.895050 42.886852,149.317841 40.080204,149.688919 
	C33.853550,150.512161 33.777519,150.487732 33.768921,144.379349 
	C33.746166,128.216980 33.749763,112.054573 33.746925,95.892174 
	C33.742943,73.231506 33.865391,50.569630 33.643066,27.911123 
	C33.595329,23.045767 35.275009,21.588526 39.955326,21.602530 
	C53.088348,21.641825 53.030937,21.508787 57.500137,34.019108 
	C63.774220,51.581715 70.140038,69.111565 76.484398,86.648994 
	C76.907104,87.817467 77.479950,88.931625 79.125732,89.900330 
	C79.125732,87.660889 79.126915,85.421448 79.125542,83.182007 
	C79.114243,64.687111 79.218880,46.190887 79.007690,27.698275 
	C78.955910,23.164202 80.369919,21.597677 84.983673,21.600569 
	C99.403305,21.609610 99.404007,21.448692 99.408493,35.681099 
	C99.418999,69.005447 99.344154,102.330269 99.529274,135.653641 
	C99.557426,140.720520 98.457375,143.647308 92.787277,143.208298 
	C91.320778,143.094757 89.813385,143.526184 88.323456,143.695694 
	C77.189697,144.962524 77.199921,144.958038 73.447746,134.110764 
	C67.952362,118.224052 62.445675,102.341240 56.921749,86.464439 
	C56.610195,85.568970 56.098946,84.742989 55.680645,83.884666 
	C55.213600,83.911240 54.746552,83.937813 54.279507,83.964378 
	C54.279507,87.493271 54.279507,91.022163 54.280117,95.042686 
z"/>
<path fill="#DE0B15" opacity="1.000000" stroke="none" 
	d="
M507.932281,143.058960 
	C508.707764,145.416367 509.343384,147.410385 510.311279,150.446899 
	C502.647186,149.407867 495.910767,148.687485 489.276947,147.427139 
	C488.000885,147.184708 486.757599,144.972763 486.128906,143.415207 
	C482.391266,134.155014 478.850616,124.815475 475.208893,115.516251 
	C474.753387,114.353165 474.092224,113.270622 472.944427,110.999184 
	C471.336395,114.255211 470.122711,116.487144 469.109467,118.806641 
	C466.045227,125.821312 462.985199,132.839722 460.077728,139.919998 
	C458.892426,142.806473 457.237549,143.983810 453.981506,143.486176 
	C448.774200,142.690292 443.498932,142.339096 437.239197,141.695770 
	C439.548157,135.980103 441.427094,131.097916 443.480591,126.290283 
	C448.972961,113.431786 454.402740,100.543175 460.158691,87.802635 
	C461.964722,83.805092 461.804840,80.382828 460.214752,76.407974 
	C453.723358,60.181236 447.482758,43.854019 441.188568,27.548841 
	C440.609222,26.048008 440.304962,24.441000 439.620331,21.972448 
	C446.659851,21.972448 453.072815,21.729853 459.436646,22.180748 
	C460.683014,22.269056 462.116608,24.888962 462.816956,26.605225 
	C465.708923,33.692440 468.330017,40.889755 471.102173,48.026611 
	C471.804718,49.835358 472.697296,51.570290 474.119537,54.694286 
	C477.377625,47.361561 480.048035,41.215157 482.828979,35.119190 
	C490.133087,19.108225 484.885132,22.108585 502.623901,21.757465 
	C504.865601,21.713095 507.108978,21.751398 510.593323,21.751398 
	C508.044312,27.944397 506.039398,32.972668 503.913940,37.949463 
	C498.029938,51.726871 491.995117,65.441437 486.291504,79.292671 
	C485.452881,81.329216 485.386230,84.238342 486.156952,86.296379 
	C493.218414,105.152420 500.543915,123.909576 507.932281,143.058960 
z"/>
<path fill="#DF0B15" opacity="1.000000" stroke="none" 
	d="
M118.479736,69.999710 
	C118.483383,55.513256 118.607063,41.525188 118.417641,27.541363 
	C118.360397,23.316113 119.557175,21.615780 124.053650,21.682198 
	C139.035446,21.903496 154.023514,21.854866 169.007080,21.702444 
	C173.285355,21.658924 175.146591,23.114508 174.733627,27.529657 
	C174.455841,30.499756 174.524902,33.531448 174.748596,36.512333 
	C175.068237,40.771698 173.496552,42.497196 169.045700,42.347347 
	C160.729599,42.067379 152.394470,42.388992 144.074081,42.183781 
	C140.250290,42.089470 138.656387,43.285961 138.836304,47.306038 
	C139.096558,53.121315 139.017044,58.963264 138.805420,64.783760 
	C138.684189,68.118019 139.985062,69.112251 143.184982,69.002594 
	C149.338943,68.791695 155.505997,68.991951 161.664062,68.858414 
	C164.632111,68.794060 165.934280,69.937225 165.836609,72.946754 
	C165.707016,76.939117 165.667313,80.940956 165.787338,84.932755 
	C165.880676,88.037361 164.415878,88.972382 161.530807,88.933022 
	C155.539093,88.851280 149.540756,89.117561 143.552734,88.956886 
	C140.163162,88.865929 138.760452,89.946884 138.855957,93.502396 
	C139.039185,100.323402 139.025116,107.159798 138.777725,113.978386 
	C138.635956,117.885956 140.262848,118.856529 143.856430,118.547531 
	C152.311584,117.820511 160.801987,117.492119 169.251083,116.710312 
	C173.454910,116.321327 175.098969,117.772522 174.737885,121.965965 
	C174.341827,126.565765 175.818176,132.501740 173.460129,135.397293 
	C171.463470,137.849075 165.170090,136.898346 160.762772,137.271881 
	C148.323822,138.326080 135.859406,139.114487 123.442825,140.378906 
	C119.143158,140.816772 118.385712,139.217026 118.408432,135.436111 
	C118.538506,113.791283 118.476448,92.145309 118.479736,69.999710 
z"/>
<path fill="#DD0C16" opacity="1.000000" stroke="none" 
	d="
M282.463562,59.810196 
	C282.501038,67.694832 282.501038,67.691116 289.760468,67.699295 
	C294.760406,67.704933 299.763885,67.841927 304.759033,67.693329 
	C308.133881,67.592949 309.797577,68.809418 309.480713,72.321678 
	C309.376312,73.479042 309.459381,74.653519 309.460602,75.820175 
	C309.473206,87.791206 309.473450,87.790558 297.249329,87.791687 
	C294.416016,87.791946 291.553314,88.059700 288.755707,87.745377 
	C283.496979,87.154526 282.249115,89.559669 282.374725,94.410614 
	C282.663727,105.569664 282.326477,116.743858 282.528137,127.906769 
	C282.604736,132.145401 281.325989,134.148926 276.840088,133.758621 
	C273.863037,133.499588 270.826324,133.504791 267.849274,133.766800 
	C263.514374,134.148285 261.963531,132.492081 262.021637,128.085709 
	C262.219330,113.088409 262.089661,98.086830 262.090179,83.086891 
	C262.090851,64.586983 262.193512,46.086205 262.027374,27.587822 
	C261.989349,23.355606 263.175934,21.633320 267.670746,21.696192 
	C282.833679,21.908283 298.002319,21.867062 313.166718,21.717842 
	C317.099884,21.679136 318.622528,23.194889 318.432465,27.010172 
	C318.275055,30.169191 318.222076,33.351669 318.417206,36.505535 
	C318.680908,40.768093 317.062103,42.469643 312.632141,42.336536 
	C304.140594,42.081398 295.632874,42.410698 287.136444,42.251766 
	C283.704071,42.187561 282.275360,43.305977 282.450165,46.840755 
	C282.655670,50.996544 282.475708,55.171391 282.463562,59.810196 
z"/>
<path fill="#DC0B15" opacity="1.000000" stroke="none" 
	d="
M193.185120,21.706606 
	C210.307465,21.709503 226.954712,21.842844 243.598389,21.657253 
	C247.838333,21.609974 249.800751,22.740448 249.457413,27.241661 
	C249.179718,30.882498 249.340927,34.562447 249.416199,38.222805 
	C249.477493,41.203888 248.083557,42.413696 245.165558,42.332455 
	C241.506500,42.230579 237.821747,42.541988 234.186386,42.229488 
	C229.709076,41.844624 228.532944,43.669518 228.562363,47.977837 
	C228.743088,74.444031 228.676590,100.911942 228.679932,127.379280 
	C228.680817,134.422668 228.539444,134.544907 221.407379,134.710754 
	C208.169312,135.018570 208.173233,135.018585 208.170731,121.851036 
	C208.166046,97.214714 208.065506,72.577766 208.234634,47.942665 
	C208.264160,43.641567 207.106415,41.761074 202.624878,42.193851 
	C199.656616,42.480492 196.637543,42.253807 193.641357,42.236115 
	C187.115219,42.197582 187.103745,42.183853 187.092850,35.451736 
	C187.088547,32.788479 187.321991,30.103527 187.060501,27.466801 
	C186.629166,23.117336 188.336243,21.189886 193.185120,21.706606 
z"/>
<path fill="#DF0B15" opacity="1.000000" stroke="none" 
	d="
M385.663574,129.863129 
	C385.536713,137.361801 385.536957,137.356659 378.309662,136.998596 
	C364.005646,136.289902 349.705078,135.486938 335.394470,134.954117 
	C331.870605,134.822906 330.846741,133.473969 330.854767,130.130310 
	C330.937500,95.650009 330.953217,61.169353 330.862244,26.689131 
	C330.852570,23.019281 332.154236,21.800947 335.776337,21.668076 
	C351.177246,21.103123 351.180176,21.010244 351.185638,36.193390 
	C351.194427,60.679562 351.291321,85.166473 351.105225,109.651199 
	C351.072723,113.926735 352.261383,115.543541 356.639160,115.643753 
	C364.457611,115.822716 372.259857,116.861343 380.075562,116.949593 
	C384.575928,117.000404 386.002594,118.752907 385.665985,122.899452 
	C385.491486,125.049774 385.653748,127.227448 385.663574,129.863129 
z"/>
<path fill="#DE0C16" opacity="1.000000" stroke="none" 
	d="
M422.444397,88.000237 
	C422.415894,103.827980 422.278320,119.156784 422.427673,134.482788 
	C422.470215,138.848907 421.152039,140.269257 416.620209,139.910461 
	C402.024475,138.754868 401.985626,138.920151 401.981964,124.254593 
	C401.973999,92.099403 402.089478,59.943665 401.903473,27.789598 
	C401.875061,22.877636 403.523438,21.189251 408.223663,21.651350 
	C411.030579,21.927309 413.897583,21.923111 416.712372,21.710672 
	C421.071350,21.381683 422.512268,23.193228 422.478729,27.523344 
	C422.324066,47.514530 422.431061,67.507744 422.444397,88.000237 
z"/>
</svg>